<svg xmlns="http://www.w3.org/2000/svg" width="158" height="85" id="svg2863"><defs id="defs2904"></defs><clipPath id="clp1" fill="none"><path shape-rendering="crispEdges" d="M0 0H595.276V841.89H0z" id="path2866" style="stroke:#000"/></clipPath><g clip-path="url(#clp1)" id="g2868" transform="matrix(0.32707452,0,0,0.32707452,-18.431008,-96.450709)" style="fill:none"><g transform="translate(54.1883,292.9987)" id="g2870"><path d="m2.189 84.694c.005-2.452.996-4.673 2.595-6.282s3.807-2.607 6.243-2.612l30.84 8.801s30.873-8.915 30.873-8.915c2.436-.004 4.639.985 6.233 2.589 1.594 1.604 2.577 3.821 2.572 6.272l-8.859 31.069s8.745 31.037 8.745 31.037c-.004 2.451-.996 4.672-2.595 6.282s-3.806 2.607-6.242 2.612l-30.841-8.801s-30.873 8.915-30.873 8.915c-2.436.005-4.64-.985-6.233-2.588-1.593-1.604-2.577-3.821-2.572-6.273l8.859-31.069s-8.745-31.037-8.745-31.037z" id="path2872" style="fill:#4ad2f0"/></g><g transform="translate(54.1883,292.9987)" id="g2874"><path d="m63.727 9.234c1.131-2.931 3.337-5.132 5.989-6.323 2.652-1.191 5.751-1.371 8.667-.257l32.85 24.689s41.024 3.513 41.024 3.513c2.916 1.113 5.097 3.309 6.267 5.959s1.328 5.754.197 8.685l-24.863 33.098s-3.791 41.142-3.791 41.142c-1.131 2.93-3.337 5.132-5.989 6.323s-5.75 1.371-8.667.258l-32.85-24.69s-41.024-3.513-41.024-3.513c-2.916-1.113-5.098-3.309-6.267-5.959-1.17-2.65-1.327-5.754-.196-8.685l24.863-33.097s3.79-41.143 3.79-41.143z" id="path2876" style="fill:#d0f400"/></g><g transform="translate(54.1883,292.9987)" id="g2878"><path d="m65.827 175.084c-.51-1.335-.434-2.752.1-3.962.534-1.21 1.527-2.214 2.853-2.726l18.628-1.653s14.944-11.305 14.944-11.305c1.325-.512 2.731-.433 3.934.107s2.201 1.542 2.711 2.877l1.67 18.765s11.247 15.068 11.247 15.068c.51 1.335.434 2.751-.1 3.962-.534 1.211-1.527 2.215-2.852 2.727l-18.628 1.653S85.39 211.902 85.39 211.902c-1.325.511-2.732.433-3.934-.107s-2.201-1.542-2.711-2.877l-1.67-18.764s-11.248-15.07-11.248-15.07z" id="path2880" style="fill:#3394ce"/></g><g transform="translate(54.1883,292.9987)" id="g2882"><path d="m35.575 82.806 6.292 1.795s30.873-8.915 30.873-8.915c2.436-.004 4.639.985 6.233 2.589 1.594 1.604 2.577 3.821 2.572 6.272l-4.73 16.59s-35.278-3.021-35.278-3.021c-2.916-1.113-5.098-3.309-6.267-5.959-1.17-2.65-1.327-5.754-.196-8.685-.001.002.501-.666.501-.666z" id="path2884" style="fill:#6bb340"/></g><g transform="translate(54.1883,292.9987)" id="g2886"><path d="m182.238 121.084s-.085 18.031-.085 18.031 23.358.0 23.358.0c4.063.0 7.357 3.294 7.357 7.357s-3.294 7.357-7.357 7.357h-23.358s0 91.975.0 91.975c0 4.515-3.66 8.174-8.174 8.174s-8.174-3.66-8.174-8.174v-91.975s-14.164.0-14.164.0c-4.063.0-7.357-3.294-7.357-7.357s3.294-7.357 7.357-7.357h13.962s0-16.11.0-16.11c0-19.822 12.463-29.833 31.265-29.833h8.644c4.063.0 7.357 3.294 7.357 7.357s-3.294 7.357-7.357 7.357h-8.644c-11.105.001-14.63 3.987-14.63 13.198z" id="path2888" style="fill:#202d79"/></g><g transform="translate(54.1883,292.9987)" id="g2890"><path d="m355.087 121.084s-.085 18.031-.085 18.031 23.358.0 23.358.0c4.063.0 7.357 3.294 7.357 7.357s-3.294 7.357-7.357 7.357h-23.358s0 91.975.0 91.975c0 4.515-3.66 8.174-8.174 8.174-4.514.0-8.174-3.66-8.174-8.174v-91.975s-14.165.0-14.165.0c-4.063.0-7.357-3.294-7.357-7.357s3.294-7.357 7.357-7.357h13.962s0-16.11.0-16.11c0-19.822 12.463-29.833 31.265-29.833h8.644c4.063.0 7.357 3.294 7.357 7.357s-3.294 7.357-7.357 7.357h-8.644c-11.103.001-14.629 3.987-14.629 13.198z" id="path2892" style="fill:#202d79"/></g><g transform="translate(54.1883,292.9987)" id="g2894"><path d="m402.657 187.03s66.916.0 66.916.0c-2.767-22.476-15.458-32.213-31.211-32.213-19.651.0-32.445 12.228-35.705 32.213zm35.995 51.454c17.733.0 25.347-9.427 28.229-13.146.0.0 3.535-4.626 5.499-5.205 1.793-.52 3.782-.369 5.56.577 3.228 1.716 4.673 5.471 3.593 8.833-.468 1.793-1.401 4.061-2.95 6.524-5.313 8.034-17.115 17.804-40.222 17.804-31.579.0-51.811-20.318-51.811-55.31.0-30.331 15.947-59.032 51.811-59.032 27.191.0 44.701 19.157 46.838 50.121.0 11.645-4.845 12.094-17.925 12.094h-65.328c1.495 33.113 24.433 36.74 36.706 36.74z" id="path2896" style="fill:#202d79"/></g><g transform="translate(54.1883,292.9987)" id="g2898"><path d="m221.995 172.263c0-17.939 15.942-32.083 41.568-32.083l.614.002c22.041-.007 33.241 9.637 38.283 17.567 1.47 2.431 2.356 4.67 2.8 6.44 1.025 3.318-.347 7.025-3.41 8.719-1.688.934-3.576 1.083-5.277.57-1.864-.571-5.219-5.138-5.219-5.138-1.978-2.653-6.306-8.254-14.907-11.153-3.725-1.182-7.918-1.815-12.884-1.815-15.942.0-25.426 6.519-25.426 16.487.0 7.143 5.046 12.913 13.723 14.729l27.439 5.85c14.933 3.229 28.049 10.949 28.049 28.655.0 18.78-16.343 32.765-42.978 32.765l-1.164.011c-23.107.0-34.909-9.77-40.222-17.804-1.549-2.463-2.483-4.731-2.95-6.524-1.08-3.362.365-7.117 3.593-8.833 1.778-.945 3.768-1.096 5.561-.577 1.964.579 5.499 5.205 5.499 5.205 2.098 2.706 6.703 8.436 15.888 11.354 4.051 1.286 8.664 1.955 13.795 1.955 17.756.0 26.635-7.081 26.635-16.949.0-6.758-5.046-12.51-13.319-14.326l-28.249-5.85c-14.933-3.028-27.442-11.989-27.442-29.257z" id="path2900" style="fill:#202d79"/></g></g></svg>