<?xml version="1.0" encoding="UTF-8" standalone="no"?>
<!-- Created with Inkscape (http://www.inkscape.org/) -->

<svg
   xmlns:dc="http://purl.org/dc/elements/1.1/"
   xmlns:cc="http://creativecommons.org/ns#"
   xmlns:rdf="http://www.w3.org/1999/02/22-rdf-syntax-ns#"
   xmlns:svg="http://www.w3.org/2000/svg"
   xmlns="http://www.w3.org/2000/svg"
   xmlns:sodipodi="http://sodipodi.sourceforge.net/DTD/sodipodi-0.dtd"
   xmlns:inkscape="http://www.inkscape.org/namespaces/inkscape"
   width="156.96263"
   height="135.58382"
   id="svg2"
   inkscape:label="Pozadí"
   version="1.1"
   inkscape:version="0.48.2 r9819"
   sodipodi:docname="mks_obalka_pruhledne.svg">
  <defs
     id="defs3" />
  <sodipodi:namedview
     id="base"
     pagecolor="#ffffff"
     bordercolor="#666666"
     borderopacity="1.0"
     inkscape:pageopacity="0.0"
     inkscape:pageshadow="2"
     inkscape:zoom="44.8"
     inkscape:cx="138.50459"
     inkscape:cy="86.874967"
     inkscape:document-units="px"
     inkscape:current-layer="layer2"
     showgrid="false"
     inkscape:window-width="1280"
     inkscape:window-height="753"
     inkscape:window-x="-4"
     inkscape:window-y="-4"
     inkscape:window-maximized="1"
     fit-margin-top="0"
     fit-margin-left="0"
     fit-margin-right="0"
     fit-margin-bottom="0" />
  <metadata
     id="metadata6">
    <rdf:RDF>
      <cc:Work
         rdf:about="">
        <dc:format>image/svg+xml</dc:format>
        <dc:type
           rdf:resource="http://purl.org/dc/dcmitype/StillImage" />
        <dc:title />
      </cc:Work>
    </rdf:RDF>
  </metadata>
  <g
     inkscape:groupmode="layer"
     id="layer2"
     inkscape:label="obalka"
     transform="translate(0,-916.77841)">
    <path
       style="fill:#000000;fill-opacity:1;fill-rule:nonzero;stroke:none"
       d="m 59.657146,964.58345 c -3.35125,0.003 -6.67994,0.0111 -10.03125,0.0312 -0.101669,0.01 -0.103161,0.0152 -0.103161,0.0152 l 0.922612,4.36722 c 0,0 -0.0078,-0.008 0.118049,-0.007 18.24919,0.37362 38.73709,0.50467 57.843754,0.15625 0.32206,0.01 0.29493,0.0101 0.29493,0.0101 l 1.69761,-4.15284 c 0,0 0.0186,-0.003 -0.21129,-0.0135 -16.715254,-0.23468 -33.604064,-0.42041 -50.531254,-0.4062 z m -39.71875,0.5 c -6.00494,0.15642 -12.0030604,0.34472 -17.9687501,0.59375 l -0.5,0 0,0.5 c -1.36249996,33.2575 -2.19499996,53.805 -0.59374996,85.25 l 0,0.5 0.49999996,0 C 23.318396,1050.6185 119.7434,1053.836 155.2509,1051.4585 l 0.5,0 -0.0312,-0.5 c 2.35875,-29.9163 0.88125,-58.3738 -0.5,-84.8438 l 0,-0.5 -0.5,0 c -4.94242,-0.0548 -9.96342,-0.11798 -14.96875,-0.1875 -0.23901,0.008 -0.22413,0.0227 -0.22413,0.0227 l -0.0642,2.54392 c 0,0 0.0144,-0.006 0.25711,-0.004 4.78454,-0.30379 9.28204,-0.667 13.34375,-1.09375 -1.04,27.38875 -0.8825,55.75505 0.40625,82.15625 -47.66125,-1.9487 -99.966254,-5.3187 -149.9375041,-0.094 2.2074997,-26.3575 3.4737497,-29.9287 -0.4375,-81.65625 4.2231597,0.24882 10.4418401,0.51714 17.3750001,0.78125 0.109271,-0.0163 0.09143,-0.0211 0.09143,-0.0211 l -0.535648,-2.99334 c 0,0 -0.008,0.003 -0.08703,0.0145 z"
       id="path3008"
       inkscape:connector-curvature="0"
       sodipodi:nodetypes="ccccccccccccccccccccccccccccccccccccc" />
    <path
       id="path3010"
       style="fill:#000000;fill-opacity:1;fill-rule:nonzero;stroke:none"
       d="m 49.445116,999.6046 c -32.49125,30.375 -41.2362504,42.07 -47.2175001,48.525 l 1.1625,0.9813 c 8.8575001,-7.6025 19.0425001,-14.39 47.9487501,-47.6413 l -1.89375,-1.865 z"
       inkscape:connector-curvature="0" />
    <path
       id="path3012"
       style="fill:#000000;fill-opacity:1;fill-rule:nonzero;stroke:none"
       d="m 107.56012,1000.0634 -2.98875,1.43 c 14.13625,17.8962 35.5075,37.7837 47.34375,47.0312 l 0.7175,-0.6887 c -12.8075,-14.8088 -13.99375,-18.53 -45.0725,-47.7725 z"
       inkscape:connector-curvature="0" />
    <path
       id="path3014"
       style="fill:#000000;fill-opacity:1;fill-rule:nonzero;stroke:none"
       d="m 2.8876159,965.99585 -0.5675,0.84 C 23.868866,987.1571 57.838866,1006.6646 77.916366,1017.7196 l 0.24875,0.185 0.28375,-0.185 c 26.635004,-13.765 63.906254,-40.02 75.126254,-50.29375 l -0.97125,-1.40125 c -12.8175,8.0175 -51.10375,30.65 -74.731254,49.3413 -23.41875,-19.1163 -49.34125,-33.5988 -74.9850001,-49.37005 z"
       inkscape:connector-curvature="0" />
  </g>
  <g
     inkscape:label="prase"
     inkscape:groupmode="layer"
     id="layer1"
     style="display:inline"
     transform="translate(0,-916.77841)"
     sodipodi:insensitive="true">
    <path
       style="fill:#000000;fill-opacity:1;fill-rule:nonzero;stroke:none"
       d="m 75.563396,921.6772 c -1.1015,-0.006 -2.25842,0.0219 -3.4375,0.0937 -1.94265,0.11845 -3.98487,0.36128 -6.0625,0.71875 -0.207488,0.0803 -0.221392,0.0592 -0.221392,0.0592 l 0.553254,3.75838 c 0,0 0.05137,0.0381 0.230638,-0.0363 6.70733,-1.14362 13.02305,-0.86858 16.4375,0 2.14443,0.54505 6.44393,2.20079 11.3125,4.6875 0.2771,0.14316 0.235294,0.11672 0.235294,0.11672 l 0.154466,-4.24981 c 0,0 0.03703,-0.0316 -0.23351,-0.0544 -4.34443,-2.1209 -8.15243,-3.55163 -10.53125,-4.15625 -2.23543,-0.56865 -5.133,-0.91834 -8.4375,-0.9375 z m -36.0625,17.1875 c -1.89444,3.25991 -3.2381,7.05426 -3.78125,11.46875 l 3.75,0.46875 c 0.47343,-3.84786 1.59756,-7.12947 3.1875,-9.9375 0.102304,-0.18975 0.08167,-0.20574 0.08167,-0.20574 l -3.118663,-1.99702 c 0,0 0.03008,0.05 -0.119257,0.20276 z m 78.468754,5.59375 c -0.18775,-0.20604 -0.17616,-0.19378 -0.17616,-0.19378 l -3.21807,2.08162 c 0,0 0.003,-0.005 0.11298,0.17466 2.30102,2.93297 3.99967,6.04682 4.71875,9.28125 l 3.71875,-0.84375 c -0.84813,-3.81491 -2.70979,-7.3113 -5.15625,-10.5 z"
       id="path3006"
       inkscape:connector-curvature="0"
       sodipodi:nodetypes="csccccccccccsccccccccccccccc" />
    <path
       id="path3016"
       style="fill:#000000;fill-opacity:1;fill-rule:nonzero;stroke:none"
       d="m 68.195116,957.6996 c -3.0225,1.22625 -4.62875,3.61875 -5.27875,7.2025 l 1.655,0.2775 c 0.9675,-4.8625 8.40875,-5.34125 14.2625,-5.11625 3.92625,0.15125 12.56875,1.83125 13.18875,5.18 l 2.05625,-0.185 c -1.3725,-5.69375 -9.23875,-8.37 -15.235,-8.81875 -3.54,-0.26375 -7.54875,0.23 -10.64875,1.46 z"
       inkscape:connector-curvature="0" />
    <path
       id="path3018"
       style="fill:#000000;fill-opacity:1;fill-rule:nonzero;stroke:none"
       d="m 62.578866,946.1571 c -3.1775,0.1025 -4.2625,2.41125 -4.2625,4.90625 0,2.76 2.4375,3.62375 5.25375,3.6875 2.295,0.0538 5.68875,-1.3475 5.5425,-4.1025 -0.1075,-1.92375 -3.71625,-4.585 -6.53375,-4.49125 z m 1.04125,2.915 c 0.99,0 1.69375,0.64875 1.7325,1.30375 0.0538,0.815 -0.815,1.05375 -1.80625,1.05375 -0.98625,0 -1.9725,-0.405 -2.075,-1 -0.1075,-0.60625 1.16125,-1.3575 2.14875,-1.3575 z"
       inkscape:connector-curvature="0" />
    <path
       id="path3020"
       style="fill:#000000;fill-opacity:1;fill-rule:nonzero;stroke:none"
       d="m 83.702616,948.4071 c 0.0387,0.67 0.13125,0.92875 0.805,0.9375 2.965,0.255 7.6025,3.08625 9.6,3.95625 1.997505,0.86875 3.535005,0.53125 7.842504,0.22375 0.7075,-0.0487 1.3125,-0.7425 1.26375,-1.455 -0.0488,-0.7075 -0.74125,-1.31375 -1.455,-1.265 -3.929999,0.28375 -5.174999,-0.605 -7.251254,-1.18625 -3.6025,-1.015 -8.29,-1.86 -10.805,-1.21125 z"
       inkscape:connector-curvature="0" />
    <path
       id="path3022"
       style="fill:#000000;fill-opacity:1;fill-rule:nonzero;stroke:none"
       d="m 73.185116,961.2246 c -1.08875,1.46 -1.72375,2.68125 0.23875,4.5075 1.47,-1.29875 0.90375,-3.50625 -0.23875,-4.5075 z"
       inkscape:connector-curvature="0" />
    <path
       id="path3024"
       style="fill:#000000;fill-opacity:1;fill-rule:nonzero;stroke:none"
       d="m 82.798866,961.3271 c -1.08875,1.43625 -1.72375,2.6425 0.24,4.43875 1.235,-1.19625 0.625,-3.55875 -0.24,-4.43875 z"
       inkscape:connector-curvature="0" />
    <path
       style="fill:#000000;fill-opacity:1;fill-rule:nonzero;stroke:none"
       d="m 35.250896,948.39595 c -2.19932,-0.17214 -4.48589,0.0649 -6.625,0.875 -4.27823,1.62026 -7.85232,5.66915 -8.8125,12.1875 l -0.0312,0.0937 0,0.0937 c -0.17248,4.76194 1.30012,10.35156 4.21875,15.09375 2.91863,4.74219 7.44393,8.69889 13.34375,9.375 l 2.875,0.3125 -0.90625,-2.75 c -0.8791,-2.62393 -0.90705,-4.93788 -0.71875,-6.6875 1.10877,0.91756 2.22632,1.59583 3.3125,1.9375 1.9442,0.61157 3.55553,0.70204 5.59375,1.625 l 1.3125,0.59375 0.875,-1.125 c 1.41129,-1.76901 1.4603,-4.00693 1.34375,-6.6875 -0.11655,-2.68057 -0.63702,-5.79144 -1.4375,-8.875 -0.80048,-3.08356 -1.87323,-6.14043 -3.1875,-8.6875 -1.31427,-2.54707 -2.76884,-4.67658 -4.9375,-5.71875 -1.89256,-0.91024 -4.01943,-1.48411 -6.21875,-1.65625 z m -0.28125,3.6875 c 1.72209,0.13595 3.43443,0.60462 4.90625,1.3125 0.77321,0.37158 2.11134,1.887 3.25,4.09375 1.13866,2.20675 2.16189,5.03887 2.90625,7.90625 0.74436,2.86738 1.21143,5.76924 1.3125,8.09375 0.0554,1.27512 -0.0714,2.30204 -0.21875,3.0625 -1.64992,-0.52534 -3.11142,-0.83741 -4.125,-1.15625 -1.39674,-0.43936 -2.35644,-0.96499 -3.90625,-3.28125 l -1.9375,-2.875 -1.3125,3.21875 c 0,0 -1.47468,4.03004 -0.65625,9.3125 -3.29629,-1.17091 -6.02377,-3.70699 -8.03125,-6.96875 -2.50061,-4.06299 -3.78199,-9.11013 -3.65625,-12.96875 0.83693,-5.3686 3.36161,-7.92884 6.4375,-9.09375 1.55464,-0.58878 3.30916,-0.7922 5.03125,-0.65625 z"
       id="path3028"
       inkscape:connector-curvature="0" />
    <path
       style="fill:#000000;fill-opacity:1;fill-rule:nonzero;stroke:none"
       d="m 125.5634,953.1147 c -0.99221,0.0732 -1.96107,0.23973 -2.9375,0.5 -3.90572,1.04108 -7.64604,3.5279 -10.09375,7.1875 -4.05098,6.05636 -5.875,13.90625 -5.875,13.90625 l -0.5625,2.28125 2.375,0 c 3.6495,-0.0217 6.03585,0.009 8.28125,-0.375 1.40032,-0.23967 2.72358,-0.75645 4.09375,-1.4375 0.14479,1.18011 0.24569,2.61227 0.34375,3.5 0.1813,1.64125 0.15184,2.75107 -0.65625,4.34375 l -1.8125,3.53125 3.875,-0.90625 c 0,0 2.39942,-0.54324 5.25,-1.84375 2.85058,-1.30051 6.2875,-3.34267 8.375,-6.65625 3.6409,-5.78607 4.16542,-10.6407 3.09375,-14.34375 -1.07167,-3.70305 -3.57101,-6.09163 -5.40625,-7.46875 -2.38794,-1.79095 -5.36712,-2.43841 -8.34375,-2.21875 z m 2.4375,3.75 c 1.38747,0.18607 2.65196,0.66084 3.6875,1.4375 1.48976,1.11788 3.33948,2.92493 4.09375,5.53125 0.75427,2.60632 0.56035,6.18232 -2.6875,11.34375 -1.4475,2.29767 -4.27745,4.1077 -6.78125,5.25 -0.78679,0.35895 -0.78851,0.26614 -1.4375,0.5 0.0805,-0.92412 0.0621,-1.81111 -0.0312,-2.65625 -0.21527,-1.94875 -0.60688,-3.76689 -0.59375,-6.0625 l 0,-3.4375 -2.875,1.90625 c -2.20708,1.45733 -3.52227,2.01679 -5.25,2.3125 -1.15182,0.19714 -3.23481,0.16505 -5.125,0.1875 0.72248,-2.43723 2.04488,-6.5331 4.59375,-10.34375 1.90229,-2.84415 4.9176,-4.84296 7.96875,-5.65625 1.52558,-0.40665 3.05003,-0.49857 4.4375,-0.3125 z"
       id="path3032"
       inkscape:connector-curvature="0" />
  </g>
  <g
     inkscape:groupmode="layer"
     id="layer3"
     inkscape:label="usi"
     style="display:inline"
     transform="translate(0,-916.77841)"
     sodipodi:insensitive="true">
    <path
       id="path3036-9"
       style="fill:#000000;fill-opacity:1;fill-rule:nonzero;stroke:none;display:inline"
       d="m 61.325116,916.93335 c -6.71,-1.40125 -10.29875,7.14375 -16.1575,7.86125 -3.72625,0.33125 -6.83625,1.9875 -8.51125,5.7425 -1.875,5.86875 2.97375,8.915 7.24625,10.96625 11.485,5.57625 20.76625,6.025 22.67125,-7.63625 0.26375,-5.5175 0.9025,-15.65 -5.24875,-16.93375 z m -6.32375,6.38625 c 3.05625,-2.44125 6.42125,-2.05 6.94875,-0.825 1.04875,2.45125 1.3175,7.105 0.83875,10.90375 -1.88375,11.88875 -11.44,8.735 -18.6125,6.1275 -5.1125,-1.865 -9.10125,-9.19375 -2.33875,-11.20125 2.56375,-0.76125 8.085,-0.9525 13.16375,-5.005 z"
       inkscape:connector-curvature="0" />
    <path
       id="path3040-4"
       style="fill:#000000;fill-opacity:1;fill-rule:nonzero;stroke:none;display:inline"
       d="m 94.791366,925.5371 c -0.645,2.61125 -0.81,5.45875 0.458755,9.8825 1.60625,5.615 4.6975,10.65375 6.342499,11.845 1.6075,1.1625 3.375,2.16375 5.45,2.04125 2.07,-0.12125 4.2375,-0.88375 6.59125,-2.1875 5.46375,-3.0275 9.66875,-6.225 11.25,-9.93625 0.79125,-1.86 0.67875,-4.17 -0.7175,-5.78125 -1.39625,-1.61125 -3.58875,-2.71 -6.655,-3.26125 -3.19875,-0.57625 -4.9025,-0.64 -7.89125,-3.6575 -1.26,-1.28 -5.0725,-3.745 -6.9525,-4.11625 -3.037499,-0.59625 -6.836249,0.9375 -7.876254,5.17125 z m 11.313754,-0.47875 c 3.4125,4.37 5.85375,5.9475 10.65375,6.90375 2.6225,0.5225 4.04375,1.3725 4.53125,1.93875 0.48875,0.56125 0.5375,0.815 0.1275,1.7825 -0.825,1.93375 -4.5125,5.2875 -9.62375,8.125 -2.0275,1.1175 -3.6825,1.64 -4.97125,1.71875 -1.28875,0.0725 -2.23625,-0.215 -3.18875,-0.90875 -1.90375,-1.38625 -4.559999,-4.64375 -6.078749,-9.94625 -4.277505,-10.23375 1.7825,-15.83 8.549999,-9.61375 z"
       inkscape:connector-curvature="0" />
  </g>
</svg>
