<?xml version="1.0" encoding="utf-8"?>
<!-- Generator: Adobe Illustrator 23.1.1, SVG Export Plug-In . SVG Version: 6.00 Build 0)  -->
<svg version="1.1" id="Layer_1" xmlns="http://www.w3.org/2000/svg" xmlns:xlink="http://www.w3.org/1999/xlink" x="0px" y="0px"
	 viewBox="0 0 1000 1000" style="enable-background:new 0 0 1000 1000;" xml:space="preserve">
<style type="text/css">
	.st0{fill-rule:evenodd;clip-rule:evenodd;fill:#171B1D;}
	.st1{fill:#171B1D;}
</style>
<g>
	<g>
		<g>
			<g>
				<g>
					<g>
						<path class="st0" d="M209.3,444c-10.7,36.8-23.5,77.9-34.2,114.6c-10.3,37.4-30.3,112.5-34.2,209.9c-0.3,7.2-4.9,65-5.1,75.6
							c-0.1,4.6,0,9.2,0,14.6c1.6,1.1,8.2,5.1,14.6,9c5.5,3.3,12.5-0.9,12.2-7.4C153,662.3,191.1,563,197.2,542.3
							C200.3,532.1,212,458.7,209.3,444z M652.3,380.1c0.1,0,0.1,0.1,0.2,0.1l0-0.2l-0.3,0.2L652.3,380.1L652.3,380.1L652.3,380.1z"
							/>
						<path class="st1" d="M209.3,444c-10.7,36.8-23.5,77.9-34.2,114.6c-10.3,37.4-30.3,112.5-34.2,209.9c-0.3,7.2-4.9,65-5.1,75.6
							c-0.1,4.6,0,9.2,0,14.6c1.6,1.1,8.2,5.1,14.6,9c5.5,3.3,12.5-0.9,12.2-7.4C153,662.3,191.1,563,197.2,542.3
							C200.3,532.1,212,458.7,209.3,444 M652.3,380.1c0.1,0,0.1,0.1,0.2,0.1l0-0.2l-0.3,0.2L652.3,380.1L652.3,380.1"/>
						<path class="st0" d="M855.8,376.4c-0.1-0.3-0.2-0.5-0.3-0.8l0.4,1.3C855.8,376.7,855.8,376.6,855.8,376.4z M773.5,484.1
							c-4.7,0.6-13.2,2.5-17,0.3c-5.7-3.3-9.6-11.1-10.2-17.3c-0.7-7.8-7.9-24.1-8.8-26.2c-3.2-8.3-6.8-16.5-9-25.1
							c-0.7-2.9,1.8-8.8,4.1-9.6c3.5-1.2,8.7,0.1,12.1,2c3.6,2,6.1,6.1,10,10.4c2,1.3,3.6-7.9-0.5-12.6c-7.7-8.8-37.1-23.2-40.4-25
							c0.8,3.5,1.7,8.4,1.7,8.4c-39.3-14-62.7-10.7-68.4-10.3c-22.7,4-38.8,28.6-44.5,35.8c-4.5,5.7-20.2,40-24.3,49.7
							c-2.1,5.1-2.3,11.1-7.3,14c-8,4.6-17.3,3.4-27.5,1.7c-10.7-1.8-14.1-3.7-24.6-6.9l-38-22.4c-0.6,0.9-0.2,5.1-0.8,6
							c1.5,4.1,5.2,8.6,8.1,10.2c17.9,10.4,30.8,19.6,51.5,26c9.9,3,14.9,9.5,22.6,10.1c21.2,1.4,42.6,0.5,64.4,0.5
							c4.3-0.5,37.6,0.2,46.8,0.3c16.6,0.2,22.8,0,47.2-2c2.1-0.2,20.7-6.7,24-6.6c10.4,0.2,20.8,1.3,29.9,2
							C782.3,490,777.2,485.6,773.5,484.1L773.5,484.1z M720.7,495.1c-6.6,4-46.8,4.8-65.9,2.2c-10.5-1.4-47.1-7.5-55.1-9.9
							c-6.8-2.1-12.7-9.6-10.5-16.2c2.7-8.3,13.6-27.4,15.2-30.1c3.1-5.1,18.4-44.7,47.9-56.3c9.4,2.6,18.5,3.7,25.9,7.6
							c12.9,6.8,39.4,19,42.3,77.7c0.3,6.4-1.4,8-2.6,14c0.7,0.1,3.4,0.6,6.1,0.9C726.3,485.2,735.8,485.9,720.7,495.1L720.7,495.1z
							"/>
						<path class="st1" d="M855.8,376.4c-0.1-0.3-0.2-0.5-0.3-0.8l0.4,1.3C855.8,376.7,855.8,376.6,855.8,376.4 M773.5,484.1
							c-4.7,0.6-13.2,2.5-17,0.3c-5.7-3.3-9.6-11.1-10.2-17.3c-0.7-7.8-7.9-24.1-8.8-26.2c-3.2-8.3-6.8-16.5-9-25.1
							c-0.7-2.9,1.8-8.8,4.1-9.6c3.5-1.2,8.7,0.1,12.1,2c3.6,2,6.1,6.1,10,10.4c2,1.3,3.6-7.9-0.5-12.6c-7.7-8.8-37.1-23.2-40.4-25
							c0.8,3.5,1.7,8.4,1.7,8.4c-39.3-14-62.7-10.7-68.4-10.3c-22.7,4-38.8,28.6-44.5,35.8c-4.5,5.7-20.2,40-24.3,49.7
							c-2.1,5.1-2.3,11.1-7.3,14c-8,4.6-17.3,3.4-27.5,1.7c-10.7-1.8-14.1-3.7-24.6-6.9l-38-22.4c-0.6,0.9-0.2,5.1-0.8,6
							c1.5,4.1,5.2,8.6,8.1,10.2c17.9,10.4,30.8,19.6,51.5,26c9.9,3,14.9,9.5,22.6,10.1c21.2,1.4,42.6,0.5,64.4,0.5
							c4.3-0.5,37.6,0.2,46.8,0.3c16.6,0.2,22.8,0,47.2-2c2.1-0.2,20.7-6.7,24-6.6c10.4,0.2,20.8,1.3,29.9,2
							C782.3,490,777.2,485.6,773.5,484.1 M720.7,495.1c-6.6,4-46.8,4.8-65.9,2.2c-10.5-1.4-47.1-7.5-55.1-9.9
							c-6.8-2.1-12.7-9.6-10.5-16.2c2.7-8.3,13.6-27.4,15.2-30.1c3.1-5.1,18.4-44.7,47.9-56.3c9.4,2.6,18.5,3.7,25.9,7.6
							c12.9,6.8,39.4,19,42.3,77.7c0.3,6.4-1.4,8-2.6,14c0.7,0.1,3.4,0.6,6.1,0.9C726.3,485.2,735.8,485.9,720.7,495.1"/>
						<path class="st0" d="M795.3,681.9c14.2-1.4,28.1-5.5,42.3-6.1c12.1-0.6,66-11.8,67.6-12.1c22.1-3.6,69.4-9.2,68.7-11.2
							c-2.3-6.7-62.5-77.8-81-102.2c-14.3-18.8-37-64.8-38.9-65.8c1,0,4.7-12.3,4.8-18.4c0.1-7.1-0.6-14.2-0.9-21.4
							c0.7,0,8.4-24.2,11.4-47.4c1.9-14.7-14,7.1-13.9,6.6c2-8,11.8-37.8,8.9-53.1c-4-21-13.4,14.7-13.4,14.7
							c-2.6-4.6,2.1-29.2-4.8-49c-18.5-52.8-13.8,5.1-13.8,5.1C793.6,241.6,649,184,627.5,175.1c-31.6-13.1-166.9-69-178.8-72.7
							c-18-2.2,2.5,13.3,2.9,16.8c-5.1-1.1-38.3-13.3-45.7-15.4c-11.8-3.3-16.4,1-24.8,1.9c0,0.5,11.4,8.5,3.8,9.5
							c-27,3.6-82.7-0.6-83.3-0.6c-24.7-0.1-49.4-1-74,0.1c-20,0.8-80.4,0-87.6,6.6c1.7,5.4,7.7,12.3,9.3,17.5
							c-30.7,3.9-61.3,7.6-91.8,11.8c-10,1.4-19.9,4.1-29.7,6.7c-1.4,0.4-2.1,3.4-3.2,5.2l33.8,15.3c-0.3,0.7,41.1,20.5,46.6,28
							c-16.1,4.8-34.3-3.2-46.2-4.9c1.9,14.6,54.7,42.8,63.3,48.4c24.6,15.9,48.8,53.1,64.9,56l-7.8,6.2c5.1,2.8,10.9,4.2,13.5,7.8
							c7.9,11.2,14.6,23.1,15.5,37.6c0.6,9.2,3.1,18.2,5.4,27.2c0.6,2.4,3.4,4.2,4.2,5.1c-2.8,15.9-4.8,33.9-7.5,49.5
							c52.5-46.4,2.4-140.4-32.3-176.8c-3.5-7.9-22-19.9-40.3-27.2c4.8-2.1,8.9-5.7,8.2-10.2c-14.5,0.5-33.3,0.6-45.9-7.2
							c12.7-1.4,25.1-5.1,29.6-12.4c-12.7-7.7-24.5-15.8-37.1-22.4c-12.6-6.6-38.5-18.7-38.1-19.7c27.9-4.4,59.1-3,68.4-3.4
							c13-0.5,58.8,5.4,28.2-9.4c-0.1-1.2,25.4,0.3,33.6,2.7c18.3,5.4-1.3-13-5.1-17.2c19.2-2.7,31.6,6,55.1,6.6
							c-4.4-6.9-13.2-11-13.1-12.2c8.3-0.5,16.7-1.4,25-1.5c20.7-0.3,41.3,0.3,62-0.5c14.5-0.5,73.2,4,88.4,5.2
							c3,0.2,16.7-6.3,19.4-5.8c9.6,2,8.5,6,18.1,8.1c16.8,3.6,33.6,7.5,50.8,10.8c-0.5-2.5-2.4-8.6-3.3-12.7
							c3.5,0,69.2,21.3,92.9,31.4c15,6.3,29.9,12.7,44.5,19.8c13.5,6.5,26.7,13.8,39.9,21c15.9,8.7,32,17.2,47.5,26.7
							c23.1,14.2,46.2,28.5,68.5,44c11.3,7.8,70.4,57.8,65.5,168.9c-0.1,2.5,0.5,13.5-1.1,14.3c-11.7,5.9-21.5,3.3-8.7,34.6
							c1,2.4-14.7,7.2-16.6,16.6c36.5,9.5,68.2,46.9,72.4,51c15.1,14.9,57.8,56.4,61.6,64.9c0.6,1.5-1,6.2-2.8,6.3
							c-77.2,1-126.2-14.4-146-20c-18-5-108.6-36.5-115.6-63c-9,7.1-11,18.5-5.5,21.2c90.5,45.3,112.1,46.3,122.7,49
							c17,4.3,109.2,22.2,120,23.5c-6.6,13.7-104,25.4-103.9,26.3c-20.5,2.1-60.5,3.4-89.3-0.8c-5.2-5.8-16.4-20.8-16.6-20.5
							c-6.5,12.9-0.9,46.8,0.4,51.8c3.2,12.2,7.6,28.4,9.8,39.8c1.8,9.2,3.1,18.5,5.9,27.4c3.6,11.2,18.9,52.8,24.6,61.2
							c4.9,7.1,23.7,33.1,28.3,38.6c7.3,8.8,16.3,16.1,24.7,23.8c6,5.4,12.3,8.6,19.1,0.3c-79.2-56.6-77.9-140.9-81.4-156.1
							c-3-12.9,1.1-22.6,9.1-32.9C756.2,696.9,771.9,684.2,795.3,681.9L795.3,681.9z"/>
						<path class="st1" d="M795.3,681.9c14.2-1.4,28.1-5.5,42.3-6.1c12.1-0.6,66-11.8,67.6-12.1c22.1-3.6,69.4-9.2,68.7-11.2
							c-2.3-6.7-62.5-77.8-81-102.2c-14.3-18.8-37-64.8-38.9-65.8c1,0,4.7-12.3,4.8-18.4c0.1-7.1-0.6-14.2-0.9-21.4
							c0.7,0,8.4-24.2,11.4-47.4c1.9-14.7-14,7.1-13.9,6.6c2-8,11.8-37.8,8.9-53.1c-4-21-13.4,14.7-13.4,14.7
							c-2.6-4.6,2.1-29.2-4.8-49c-18.5-52.8-13.8,5.1-13.8,5.1C793.6,241.6,649,184,627.5,175.1c-31.6-13.1-166.9-69-178.8-72.7
							c-18-2.2,2.5,13.3,2.9,16.8c-5.1-1.1-38.3-13.3-45.7-15.4c-11.8-3.3-16.4,1-24.8,1.9c0,0.5,11.4,8.5,3.8,9.5
							c-27,3.6-82.7-0.6-83.3-0.6c-24.7-0.1-49.4-1-74,0.1c-20,0.8-80.4,0-87.6,6.6c1.7,5.4,7.7,12.3,9.3,17.5
							c-30.7,3.9-61.3,7.6-91.8,11.8c-10,1.4-19.9,4.1-29.7,6.7c-1.4,0.4-2.1,3.4-3.2,5.2l33.8,15.3c-0.3,0.7,41.1,20.5,46.6,28
							c-16.1,4.8-34.3-3.2-46.2-4.9c1.9,14.6,54.7,42.8,63.3,48.4c24.6,15.9,48.8,53.1,64.9,56l-7.8,6.2c5.1,2.8,10.9,4.2,13.5,7.8
							c7.9,11.2,14.6,23.1,15.5,37.6c0.6,9.2,3.1,18.2,5.4,27.2c0.6,2.4,3.4,4.2,4.2,5.1c-2.8,15.9-4.8,33.9-7.5,49.5
							c52.5-46.4,2.4-140.4-32.3-176.8c-3.5-7.9-22-19.9-40.3-27.2c4.8-2.1,8.9-5.7,8.2-10.2c-14.5,0.5-33.3,0.6-45.9-7.2
							c12.7-1.4,25.1-5.1,29.6-12.4c-12.7-7.7-24.5-15.8-37.1-22.4c-12.6-6.6-38.5-18.7-38.1-19.7c27.9-4.4,59.1-3,68.4-3.4
							c13-0.5,58.8,5.4,28.2-9.4c-0.1-1.2,25.4,0.3,33.6,2.7c18.3,5.4-1.3-13-5.1-17.2c19.2-2.7,31.6,6,55.1,6.6
							c-4.4-6.9-13.2-11-13.1-12.2c8.3-0.5,16.7-1.4,25-1.5c20.7-0.3,41.3,0.3,62-0.5c14.5-0.5,73.2,4,88.4,5.2
							c3,0.2,16.7-6.3,19.4-5.8c9.6,2,8.5,6,18.1,8.1c16.8,3.6,33.6,7.5,50.8,10.8c-0.5-2.5-2.4-8.6-3.3-12.7
							c3.5,0,69.2,21.3,92.9,31.4c15,6.3,29.9,12.7,44.5,19.8c13.5,6.5,26.7,13.8,39.9,21c15.9,8.7,32,17.2,47.5,26.7
							c23.1,14.2,46.2,28.5,68.5,44c11.3,7.8,70.4,57.8,65.5,168.9c-0.1,2.5,0.5,13.5-1.1,14.3c-11.7,5.9-21.5,3.3-8.7,34.6
							c1,2.4-14.7,7.2-16.6,16.6c36.5,9.5,68.2,46.9,72.4,51c15.1,14.9,57.8,56.4,61.6,64.9c0.6,1.5-1,6.2-2.8,6.3
							c-77.2,1-126.2-14.4-146-20c-18-5-108.6-36.5-115.6-63c-9,7.1-11,18.5-5.5,21.2c90.5,45.3,112.1,46.3,122.7,49
							c17,4.3,109.2,22.2,120,23.5c-6.6,13.7-104,25.4-103.9,26.3c-20.5,2.1-60.5,3.4-89.3-0.8c-5.2-5.8-16.4-20.8-16.6-20.5
							c-6.5,12.9-0.9,46.8,0.4,51.8c3.2,12.2,7.6,28.4,9.8,39.8c1.8,9.2,3.1,18.5,5.9,27.4c3.6,11.2,18.9,52.8,24.6,61.2
							c4.9,7.1,23.7,33.1,28.3,38.6c7.3,8.8,16.3,16.1,24.7,23.8c6,5.4,12.3,8.6,19.1,0.3c-79.2-56.6-77.9-140.9-81.4-156.1
							c-3-12.9,1.1-22.6,9.1-32.9C756.2,696.9,771.9,684.2,795.3,681.9"/>
					</g>
				</g>
			</g>
		</g>
	</g>
</g>
</svg>
